<?xml version="1.0" standalone="no"?>
<!DOCTYPE svg PUBLIC "-//W3C//DTD SVG 20010904//EN"
 "http://www.w3.org/TR/2001/REC-SVG-20010904/DTD/svg10.dtd">
<svg version="1.0" xmlns="http://www.w3.org/2000/svg"
 width="348.000000pt" height="348.000000pt" viewBox="0 0 348.000000 348.000000"
 preserveAspectRatio="xMidYMid meet">
<metadata>
Created by potrace 1.14, written by Peter Selinger 2001-2017
</metadata>
<g transform="translate(0.000000,348.000000) scale(0.100000,-0.100000)"
fill="#000000" stroke="none">
<path d="M3326 3467 c3 -8 23 -27 45 -43 23 -16 56 -42 75 -58 l34 -28 0 71 0
71 -80 0 c-62 0 -78 -3 -74 -13z"/>
<path d="M3450 3216 c0 -8 -2 -21 -5 -29 -3 -7 3 -25 14 -38 l20 -24 1 53 c0
40 -4 52 -15 52 -8 0 -15 -6 -15 -14z"/>
<path d="M3460 3095 c-7 -8 -21 -15 -31 -15 -10 0 -20 -4 -23 -9 -11 -17 -106
-21 -281 -10 l-180 10 -32 -37 c-40 -45 -41 -73 -8 -131 27 -46 25 -62 -13
-94 -15 -13 -54 -17 -188 -22 -93 -3 -176 -8 -184 -11 -28 -11 -42 -44 -28
-65 10 -16 9 -27 -5 -55 -17 -37 -23 -40 -67 -36 -34 3 -46 15 -54 52 -5 27
-2 36 21 55 16 12 22 22 15 23 -7 0 -26 10 -42 21 -22 17 -38 21 -70 16 -23
-3 -44 -8 -47 -11 -3 -3 6 -21 20 -39 14 -19 29 -47 33 -63 4 -16 10 -33 14
-39 14 -20 7 -42 -12 -37 -14 3 -17 1 -11 -14 6 -16 5 -17 -9 -6 -9 7 -14 21
-11 32 3 11 1 20 -5 20 -5 0 -13 11 -16 24 -7 30 -61 52 -81 33 -10 -11 -9
-17 6 -36 11 -13 19 -32 19 -42 0 -11 6 -22 13 -25 8 -3 13 -18 12 -35 -1 -16
4 -33 10 -37 7 -4 16 -17 19 -29 7 -22 5 -23 -51 -24 -71 -1 -92 -4 -124 -21
-48 -27 -69 -43 -69 -55 0 -7 -10 -13 -23 -13 -16 0 -23 -6 -24 -20 -1 -15 3
-20 15 -16 106 33 198 46 324 46 75 0 143 -3 152 -6 20 -8 21 -67 2 -83 -8 -7
-24 -53 -36 -104 -11 -50 -28 -103 -37 -117 -10 -14 -16 -34 -15 -46 2 -11 -1
-32 -7 -46 -6 -17 -6 -29 1 -36 12 -12 -25 -102 -42 -102 -6 0 -10 -7 -10 -15
0 -8 -9 -15 -19 -15 -14 0 -18 -5 -14 -20 3 -11 9 -20 13 -20 5 0 6 -9 3 -20
-3 -11 -9 -17 -14 -14 -5 3 -9 -3 -9 -13 -1 -22 -23 -53 -38 -53 -21 0 -22 19
-2 56 12 20 23 53 26 72 4 30 -1 39 -32 66 -20 17 -45 31 -55 32 -46 3 -65 34
-37 62 9 9 9 12 -2 12 -7 0 -10 3 -7 6 10 10 -28 57 -62 77 l-31 18 0 -24 c0
-20 6 -26 35 -31 24 -5 33 -11 28 -21 -3 -8 0 -15 6 -15 7 0 4 -8 -6 -19 -10
-10 -31 -19 -46 -19 -15 0 -35 -7 -45 -15 -26 -23 -70 -28 -110 -12 -19 8 -56
15 -83 15 -58 0 -85 20 -68 52 10 18 9 20 -6 15 -9 -4 -19 -7 -21 -7 -15 0 1
-46 26 -72 17 -17 30 -34 30 -38 0 -4 25 -6 55 -5 41 2 55 -1 55 -11 0 -8 7
-14 15 -14 8 0 15 -8 15 -17 0 -15 2 -16 10 -3 7 11 12 12 21 3 6 -6 18 -9 25
-6 8 3 14 -1 14 -10 0 -16 -67 -29 -110 -20 -14 2 -49 0 -78 -5 -48 -9 -54 -8
-67 12 -19 26 -19 55 -1 62 23 9 12 39 -13 36 -14 -2 -21 2 -21 12 0 27 -17
18 -29 -15 -6 -17 -15 -28 -21 -24 -15 9 -12 35 5 41 8 3 21 20 30 36 14 29
14 30 -8 24 -12 -3 -25 -6 -29 -6 -5 0 -8 -5 -8 -11 0 -17 -80 -97 -111 -109
-16 -7 -29 -16 -29 -21 0 -14 -22 -10 -42 8 -10 9 -18 12 -18 7 0 -5 11 -18
25 -28 25 -19 34 -46 15 -46 -6 0 -13 7 -16 15 -4 8 -11 12 -17 8 -5 -3 -7 -1
-4 4 4 6 0 14 -9 17 -8 3 -12 11 -9 17 4 6 -2 13 -14 16 -12 3 -21 11 -21 19
0 7 -18 16 -41 21 -22 4 -40 12 -39 17 1 5 -4 13 -12 18 -10 7 -10 11 5 22 9
7 17 16 17 20 0 4 -15 -4 -33 -18 -19 -15 -38 -26 -43 -26 -5 0 -9 -14 -10
-30 -1 -17 3 -30 9 -30 12 0 -1 -53 -16 -62 -8 -5 -5 -8 8 -8 18 -1 18 -2 4
-13 -9 -7 -19 -19 -22 -27 -4 -8 -5 -5 -3 8 4 19 1 22 -14 17 -11 -3 -29 -1
-40 5 -20 11 -20 9 -16 -72 2 -46 11 -103 20 -127 8 -25 12 -49 9 -54 -4 -6
-1 -7 7 -2 10 6 12 4 7 -9 -4 -10 -3 -15 3 -11 5 3 16 -7 24 -22 8 -15 36 -50
62 -78 26 -27 44 -44 40 -37 -5 8 8 3 28 -10 20 -13 36 -27 36 -31 0 -5 -4 -5
-10 -2 -6 4 -7 -1 -3 -12 12 -33 16 -36 29 -19 13 18 34 14 34 -5 0 -6 -4 -8
-9 -4 -5 3 -13 0 -17 -6 -4 -8 -3 -9 4 -5 7 4 12 1 13 -6 0 -7 5 -3 11 9 l11
22 31 -21 c17 -13 36 -27 43 -34 6 -6 25 -17 43 -24 18 -8 29 -18 26 -26 -3
-7 0 -11 7 -8 7 2 22 -5 34 -16 12 -11 26 -20 31 -20 4 0 17 -9 29 -19 11 -11
45 -33 76 -51 30 -17 66 -42 80 -56 23 -22 46 -93 45 -134 0 -8 16 -62 35
-120 32 -96 34 -105 19 -118 -16 -12 -15 -13 2 -8 14 5 16 3 8 -6 -7 -9 -6
-17 3 -25 12 -11 22 2 29 39 0 4 22 30 49 57 54 57 61 93 26 141 -20 26 -20
32 -9 60 7 17 22 33 35 36 13 3 32 17 44 30 11 13 26 24 31 24 9 0 56 45 105
100 16 18 13 75 -5 110 -7 14 -12 26 -11 28 1 1 -7 23 -19 48 -21 49 -27 85
-11 68 5 -5 25 -47 44 -94 19 -47 42 -102 51 -122 9 -21 16 -44 16 -52 0 -8
-31 -46 -69 -83 l-70 -69 6 -77 c4 -46 2 -77 -4 -77 -16 0 -45 71 -34 84 5 6
11 27 14 46 4 27 20 49 72 96 45 41 66 67 64 79 -7 32 -27 27 -44 -10 -18 -36
-68 -85 -88 -85 -22 -1 -71 -79 -72 -115 -1 -19 3 -35 9 -35 6 0 4 -5 -4 -10
-12 -8 -10 -10 10 -11 l25 -1 -25 -8 -25 -8 25 -2 c14 -1 20 -4 13 -6 -7 -3
-9 -12 -6 -20 5 -13 7 -13 14 -2 6 8 9 9 9 1 0 -6 9 -9 20 -6 16 4 19 2 14
-12 -5 -11 -14 -15 -28 -11 -17 4 -15 0 9 -20 22 -18 25 -23 10 -19 -19 5 -19
5 1 -5 25 -14 22 -70 -5 -71 -14 0 -14 -1 -1 -7 24 -11 18 -35 -10 -43 l-25
-7 25 -1 c20 -1 22 -3 10 -11 -13 -9 -13 -10 0 -10 13 0 13 -1 0 -10 -13 -9
-13 -10 0 -10 13 0 13 -1 0 -10 -8 -5 -10 -10 -3 -10 18 0 3 -40 -16 -41 -12
0 -11 -2 4 -9 11 -5 15 -9 8 -9 -6 -1 -9 -10 -6 -21 4 -14 -3 -28 -20 -44 -14
-13 -23 -27 -20 -30 11 -10 -29 -7 -64 6 -18 7 -33 16 -33 20 0 4 -7 8 -15 8
-9 0 -15 10 -16 28 -1 16 -3 20 -6 10 -7 -28 -9 -27 -100 51 -13 11 -23 17
-23 14 0 -9 -158 143 -195 188 -76 92 -103 137 -92 150 10 11 9 11 -5 1 -14
-11 -19 -8 -39 20 -13 18 -27 34 -31 36 -4 2 -8 8 -8 13 0 6 -17 28 -37 50
-21 23 -42 48 -47 57 -5 10 -16 22 -24 28 -8 6 -12 16 -8 23 4 6 3 10 -2 9 -6
-2 -31 22 -56 52 -25 30 -66 78 -90 105 -89 100 -145 173 -171 224 -23 47 -25
57 -15 84 7 18 16 46 20 62 5 17 15 51 24 77 8 26 12 47 8 47 -4 -1 -11 0 -17
1 -5 1 -14 3 -20 4 -31 4 -116 64 -121 84 -4 12 -21 34 -39 47 l-32 25 -400 0
c-476 0 -446 8 -441 -110 l3 -75 42 -23 c23 -13 59 -25 80 -28 68 -8 113 -29
134 -62 10 -18 27 -32 37 -32 25 0 52 31 52 59 0 17 4 22 16 17 9 -3 20 -6 25
-6 5 0 9 -7 9 -16 0 -14 8 -16 42 -11 31 4 50 15 73 39 16 19 42 39 58 46 25
11 31 9 67 -24 53 -48 113 -60 189 -38 41 12 70 14 115 8 34 -5 67 -8 74 -7 6
0 12 -1 12 -3 0 -2 -33 -37 -74 -77 -54 -53 -86 -77 -118 -86 -23 -7 -74 -29
-113 -49 -140 -71 -203 -102 -340 -168 -77 -36 -154 -77 -171 -90 -17 -13 -36
-24 -42 -24 -7 0 -12 -3 -12 -8 0 -4 -18 -18 -40 -32 -22 -13 -42 -30 -44 -37
-3 -7 -11 -13 -19 -13 -7 0 -23 -10 -35 -23 -22 -23 -22 -24 -22 -515 l0 -492
1510 0 c1475 0 1510 0 1510 19 0 10 12 32 28 48 23 26 30 28 51 19 19 -8 26
-7 38 9 11 16 15 17 22 6 5 -8 16 -11 25 -8 9 4 16 3 16 -1 0 -4 20 -16 45
-27 24 -11 50 -30 56 -43 11 -20 20 -22 96 -22 l83 0 0 478 c0 377 -3 485 -14
516 -11 33 -11 44 0 72 11 26 14 103 14 348 l0 314 -32 4 c-19 3 -38 0 -45 -8
-22 -22 -44 -84 -41 -114 5 -52 -40 -100 -101 -105 -77 -8 -149 -19 -163 -26
-10 -6 -26 -3 -45 6 -15 8 -42 15 -60 15 -44 0 -75 51 -71 116 2 36 -1 49 -15
58 -10 6 -42 34 -72 63 -54 50 -55 52 -35 66 14 9 22 28 24 57 2 30 11 49 30
67 25 23 28 24 51 9 13 -9 40 -18 60 -20 21 -3 40 -7 43 -10 3 -4 13 1 23 10
13 11 30 14 70 10 30 -3 85 -8 124 -12 42 -4 87 -16 112 -30 24 -12 43 -18 43
-13 0 5 9 9 20 9 10 0 25 10 31 23 7 12 19 27 28 34 14 10 16 51 19 307 2 291
2 296 -18 296 -14 0 -20 -7 -20 -23 0 -28 -24 -80 -45 -97 -8 -7 -15 -23 -15
-35 0 -13 -4 -25 -9 -27 -4 -1 -12 -13 -15 -26 -6 -18 -2 -25 23 -40 36 -20
37 -23 11 -47 -14 -12 -37 -18 -82 -19 -69 -1 -217 19 -252 35 -25 12 -32 45
-10 53 16 6 19 36 4 36 -15 0 -12 62 5 110 20 55 20 160 0 186 -42 55 1 84
116 80 84 -4 131 -15 144 -35 3 -6 13 -11 22 -11 9 0 29 -13 45 -30 15 -16 31
-30 34 -30 14 0 38 85 50 180 12 88 18 310 9 310 -1 0 -8 -7 -15 -15z m-1150
-545 c0 -5 -2 -10 -4 -10 -3 0 -8 5 -11 10 -3 6 -1 10 4 10 6 0 11 -4 11 -10z
m1034 -362 c-3 -4 2 -18 10 -30 26 -36 20 -85 -13 -119 -44 -43 -111 -36 -145
15 -22 35 -12 89 23 122 21 20 35 24 78 23 29 -1 50 -6 47 -11z m-233 -99 c15
-8 24 -7 35 2 17 14 19 12 28 -24 6 -26 5 -27 -21 -24 -15 2 -33 0 -40 -5 -14
-11 -53 7 -53 25 0 12 19 37 28 37 2 0 12 -5 23 -11z m-1778 -216 c-7 -2 -19
-2 -25 0 -7 3 -2 5 12 5 14 0 19 -2 13 -5z m117 -114 c0 -6 -4 -7 -10 -4 -5 3
-10 11 -10 16 0 6 5 7 10 4 6 -3 10 -11 10 -16z m54 -61 c-3 -4 -13 -8 -22 -8
-13 0 -14 2 -4 9 11 7 11 9 -2 14 -10 4 -13 13 -9 23 5 14 8 13 24 -7 9 -13
15 -27 13 -31z m-191 22 c3 -13 14 -20 30 -20 19 0 26 -7 31 -27 4 -16 9 -36
12 -45 4 -12 0 -18 -10 -18 -9 0 -16 4 -16 9 0 4 -10 6 -23 4 -18 -4 -23 0
-23 16 0 12 6 21 13 21 22 0 14 18 -9 22 -16 2 -22 9 -20 21 2 11 -4 17 -15
17 -15 0 -16 2 -3 10 22 14 27 12 33 -10z m415 3 c6 -19 -25 -16 -32 3 -4 11
-1 14 11 12 9 -2 18 -9 21 -15z m277 -13 c-9 -36 -20 -43 -60 -43 -35 0 -45
-10 -23 -23 7 -5 8 -2 3 7 -5 8 -4 11 0 6 12 -10 14 -47 3 -47 -16 0 -7 -20
10 -21 12 0 10 -3 -8 -10 -13 -6 -28 -15 -32 -22 -5 -9 -10 -9 -20 1 -17 17
-38 15 -39 -5 -1 -17 -2 -17 -6 0 -5 19 -18 22 -28 7 -9 -15 -25 -12 -25 5 0
8 -4 15 -9 15 -5 0 -8 -15 -6 -32 3 -26 2 -29 -6 -15 -10 17 -39 24 -39 9 0
-5 9 -17 21 -28 16 -15 24 -16 39 -6 27 17 47 15 59 -5 10 -17 10 -17 11 0 0
19 16 23 22 6 2 -7 19 -17 38 -23 30 -10 36 -17 44 -55 7 -33 6 -46 -2 -49
-17 -5 -15 -22 3 -22 19 0 19 -7 1 -26 -20 -19 -25 -18 -36 9 -7 17 -9 18 -9
4 -1 -15 -4 -16 -21 -7 -11 6 -18 15 -15 21 4 5 2 9 -4 9 -5 0 -13 -9 -16 -20
-4 -13 -15 -20 -30 -20 -13 0 -30 -3 -39 -6 -12 -5 -16 0 -17 17 0 13 -3 18
-6 12 -2 -7 -9 -13 -14 -13 -11 0 -54 42 -54 52 0 4 -8 17 -17 28 -10 11 -18
24 -18 29 0 5 -6 12 -12 14 -10 4 -10 8 1 15 16 12 44 4 35 -9 -3 -5 4 -9 16
-9 16 0 20 -4 15 -19 -4 -12 3 -29 19 -48 14 -15 26 -22 26 -15 0 6 -4 12 -10
12 -14 0 -12 27 3 33 8 3 6 9 -7 19 -12 9 -17 21 -13 32 4 9 2 16 -4 16 -6 0
-9 7 -5 15 5 14 -30 42 -46 37 -5 -1 -8 2 -8 7 0 5 10 11 22 13 30 4 37 38 9
38 -15 0 -21 6 -21 23 0 12 3 17 8 11 10 -16 60 -26 67 -14 4 6 2 17 -5 24 -8
10 -9 91 -1 91 1 0 60 0 132 0 l130 0 -6 -25z m65 10 c0 -11 -7 -20 -15 -20
-8 0 -19 9 -25 20 -9 18 -8 20 15 20 18 0 25 -5 25 -20z m-790 -26 c0 -8 -4
-12 -10 -9 -5 3 -10 10 -10 16 0 5 5 9 10 9 6 0 10 -7 10 -16z m80 -94 c0 -5
-4 -10 -10 -10 -5 0 -10 5 -10 10 0 6 5 10 10 10 6 0 10 -4 10 -10z m60 -10
c0 -5 -2 -10 -4 -10 -3 0 -8 5 -11 10 -3 6 -1 10 4 10 6 0 11 -4 11 -10z m580
-130 c0 -5 -4 -10 -10 -10 -5 0 -10 5 -10 10 0 6 5 10 10 10 6 0 10 -4 10 -10z
m1240 -68 c50 -10 47 -35 -12 -90 -66 -62 -72 -65 -124 -57 -40 6 -46 10 -65
51 -24 55 -22 74 11 91 27 14 133 16 190 5z m-1869 -89 c-8 -15 -10 -15 -11
-2 0 17 10 32 18 25 2 -3 -1 -13 -7 -23z m1989 -288 c0 -8 -4 -15 -10 -15 -5
0 -10 7 -10 15 0 8 5 15 10 15 6 0 10 -7 10 -15z m-169 -113 c8 2 21 -12 29
-29 10 -22 22 -33 37 -33 28 0 54 -38 46 -68 -3 -12 -9 -22 -14 -23 -5 -1 -26
-2 -46 -3 -21 -2 -69 -8 -108 -14 -58 -9 -74 -9 -92 4 -40 25 -39 57 3 124
l38 62 17 -23 17 -23 13 27 c11 25 14 26 29 12 10 -9 24 -15 31 -13z"/>
<path d="M1600 2417 c-3 -2 -31 -7 -62 -11 -83 -8 -130 -26 -156 -58 -28 -34
-26 -34 88 -14 41 8 81 11 89 8 9 -3 12 -1 7 6 -8 14 19 14 104 2 140 -21 160
-21 154 -6 -3 8 -12 12 -20 9 -9 -3 -14 2 -14 13 0 16 -2 16 -10 4 -7 -12 -10
-11 -17 5 -4 11 -15 22 -23 23 -8 2 -24 6 -35 9 -32 9 -100 15 -105 10z"/>
<path d="M2185 2339 c-4 -5 -30 -9 -58 -9 -70 0 -120 -26 -128 -65 -6 -30 -6
-30 -18 13 -15 53 -32 46 -20 -8 13 -58 53 -116 84 -124 15 -4 46 -15 69 -26
42 -19 134 -23 128 -5 -3 9 22 23 45 24 19 1 43 -28 37 -47 -5 -15 -4 -15 9 1
11 13 14 33 10 76 -4 44 -2 64 12 84 21 33 13 58 -23 75 -36 15 -140 24 -147
11z m10 -90 c0 -7 -8 -15 -17 -17 -12 -2 -15 2 -11 18 6 23 28 22 28 -1z
m-115 -10 c0 -5 -7 -9 -15 -9 -15 0 -20 12 -9 23 8 8 24 -1 24 -14z m-20 -28
c0 -5 -13 -11 -30 -13 -18 -3 -30 0 -30 7 0 6 14 12 30 13 17 1 30 -2 30 -7z"/>
<path d="M1078 2318 c-30 -8 -38 -15 -38 -33 0 -28 45 -66 67 -58 13 5 13 3 2
-15 -11 -18 -11 -24 4 -40 32 -35 17 -30 -25 9 -46 42 -86 50 -108 24 -10 -12
-10 -18 -1 -29 8 -10 9 -16 1 -21 -6 -3 -7 -12 -3 -18 4 -7 6 -25 5 -42 l-2
-30 15 30 15 30 -5 -40 c-9 -74 11 -70 24 5 7 38 16 72 20 75 5 2 20 -9 36
-25 l27 -29 -21 -29 c-27 -38 -27 -56 -1 -49 18 5 20 0 20 -38 0 -24 4 -46 9
-49 11 -7 25 49 16 64 -8 13 14 70 27 70 5 0 6 5 2 11 -3 6 0 22 7 36 10 18
10 29 2 43 -10 16 -9 17 10 12 12 -3 37 -14 55 -24 42 -23 45 -23 58 6 10 22
9 25 -18 30 -16 3 -27 10 -23 15 3 6 -13 8 -45 4 -42 -5 -50 -3 -50 11 0 10 9
16 23 17 21 1 19 2 -22 15 -11 4 -12 7 -3 16 16 16 15 24 -4 42 -17 18 -23 18
-76 4z"/>
<path d="M1990 2320 c-13 -8 -13 -10 2 -10 9 0 20 5 23 10 8 13 -5 13 -25 0z"/>
<path d="M1532 2300 c-18 -4 -41 -14 -50 -22 -9 -8 -25 -18 -34 -21 -13 -4
-18 -17 -18 -41 0 -28 6 -39 28 -53 15 -10 29 -21 32 -25 3 -4 17 -9 30 -11
14 -2 33 -7 43 -12 28 -12 105 3 138 26 16 11 45 25 64 30 66 19 75 91 15 121
-37 19 -182 24 -248 8z m78 -9 c0 -5 -17 -12 -37 -16 -21 -4 -44 -11 -50 -17
-8 -6 -13 -6 -13 -1 0 11 58 41 83 42 9 1 17 -3 17 -8z m84 -60 c3 -5 -7 -11
-22 -13 -25 -4 -28 -1 -24 19 3 18 8 21 23 13 10 -6 20 -14 23 -19z m-126 -16
c11 -24 10 -25 -21 -24 -25 0 -28 2 -13 8 14 5 16 10 8 15 -7 4 -10 12 -7 17
10 15 21 10 33 -16z"/>
<path d="M1280 2219 c0 -5 11 -9 25 -9 16 0 25 -6 25 -15 0 -8 9 -15 20 -15
20 0 26 16 12 36 -9 13 -82 16 -82 3z"/>
<path d="M1971 2163 c0 -4 4 -17 9 -28 8 -19 9 -19 9 2 1 12 -3 25 -9 28 -5 3
-10 3 -9 -2z"/>
<path d="M1831 2124 c0 -11 3 -14 6 -6 3 7 2 16 -1 19 -3 4 -6 -2 -5 -13z"/>
<path d="M1236 2074 c-5 -12 -2 -15 10 -10 8 3 20 6 25 6 6 0 7 5 4 10 -10 15
-32 12 -39 -6z"/>
<path d="M1020 1966 c0 -4 11 -24 25 -44 20 -29 25 -33 25 -16 0 11 -11 31
-25 44 -14 13 -25 20 -25 16z"/>
<path d="M1190 1938 c0 -4 9 -8 20 -8 11 0 20 4 20 9 0 6 -9 9 -20 8 -11 -1
-20 -5 -20 -9z"/>
<path d="M1113 1848 c-7 -15 -22 -28 -35 -30 -32 -4 -29 -32 3 -36 33 -4 51
18 47 60 l-3 33 -12 -27z"/>
<path d="M1426 1272 c-3 -5 1 -9 9 -9 8 0 12 4 9 9 -3 4 -7 8 -9 8 -2 0 -6 -4
-9 -8z"/>
<path d="M1446 1238 c3 -5 10 -6 15 -3 13 9 11 12 -6 12 -8 0 -12 -4 -9 -9z"/>
<path d="M1440 1199 c0 -5 -4 -8 -9 -4 -5 3 -12 1 -15 -4 -4 -5 2 -8 11 -7 15
3 33 26 19 26 -3 0 -6 -5 -6 -11z"/>
<path d="M1516 1162 c-3 -5 1 -9 9 -9 8 0 12 4 9 9 -3 4 -7 8 -9 8 -2 0 -6 -4
-9 -8z"/>
<path d="M1523 1123 c-3 -8 -1 -19 5 -25 8 -8 9 -4 5 12 -4 15 -2 21 5 16 6
-3 13 -3 16 2 3 5 -2 9 -10 9 -9 0 -18 -7 -21 -14z"/>
<path d="M1693 1058 c-14 -17 -26 -101 -13 -93 6 3 10 23 11 43 1 32 2 34 8
12 l7 -25 6 27 c6 34 -4 54 -19 36z"/>
<path d="M1607 1053 c-14 -13 -6 -40 16 -59 12 -10 17 -12 10 -5 -6 7 -9 21
-6 30 4 14 3 14 -7 1 -9 -12 -11 -10 -7 13 5 29 4 31 -6 20z"/>
<path d="M1731 1044 c0 -11 3 -14 6 -6 3 7 2 16 -1 19 -3 4 -6 -2 -5 -13z"/>
<path d="M1575 1041 c-3 -5 -2 -12 3 -15 5 -3 9 1 9 9 0 17 -3 19 -12 6z"/>
<path d="M1751 1024 c0 -11 3 -14 6 -6 3 7 2 16 -1 19 -3 4 -6 -2 -5 -13z"/>
<path d="M1791 964 c0 -11 3 -14 6 -6 3 7 2 16 -1 19 -3 4 -6 -2 -5 -13z"/>
<path d="M1812 960 c0 -14 2 -19 5 -12 2 6 2 18 0 25 -3 6 -5 1 -5 -13z"/>
<path d="M1651 954 c0 -11 3 -14 6 -6 3 7 2 16 -1 19 -3 4 -6 -2 -5 -13z"/>
<path d="M1706 923 c-6 -14 -5 -15 5 -6 7 7 10 15 7 18 -3 3 -9 -2 -12 -12z"/>
<path d="M1751 913 c-10 -26 -10 -27 4 -9 8 11 15 23 15 28 0 15 -7 8 -19 -19z"/>
<path d="M1781 924 c0 -11 3 -14 6 -6 3 7 2 16 -1 19 -3 4 -6 -2 -5 -13z"/>
<path d="M1650 880 c0 -5 5 -10 11 -10 5 0 7 5 4 10 -3 6 -8 10 -11 10 -2 0
-4 -4 -4 -10z"/>
<path d="M1646 817 c3 -10 9 -15 12 -12 3 3 0 11 -7 18 -10 9 -11 8 -5 -6z"/>
<path d="M1836 761 c-4 -5 3 -7 14 -4 23 6 26 13 6 13 -8 0 -17 -4 -20 -9z"/>
<path d="M1885 720 c3 -5 1 -10 -6 -10 -7 0 -2 -8 9 -19 12 -10 19 -21 15 -25
-3 -3 -1 -6 5 -6 7 0 12 4 12 10 0 17 -23 60 -32 60 -5 0 -6 -4 -3 -10z"/>
<path d="M2038 683 c7 -3 16 -2 19 1 4 3 -2 6 -13 5 -11 0 -14 -3 -6 -6z"/>
<path d="M2118 593 c6 -2 18 -2 25 0 6 3 1 5 -13 5 -14 0 -19 -2 -12 -5z"/>
<path d="M2088 563 c7 -3 16 -2 19 1 4 3 -2 6 -13 5 -11 0 -14 -3 -6 -6z"/>
<path d="M1988 403 c7 -3 16 -2 19 1 4 3 -2 6 -13 5 -11 0 -14 -3 -6 -6z"/>
</g>
</svg>
